ply
format ascii 1.0
comment Created in Blender version 4.3.1
element vertex 234
property float x
property float y
property float z
property float s
property float t
element face 164
property list uchar uint vertex_indices
end_header
-0.48948747 0.1355291 0.41577598 0.67157865 0.09646674
-0.46437177 0.1504763 0.43634105 0.6800519 0.09285786
-0.46735427 0.15327226 0.4311199 0.67931664 0.094264045
-0.48948747 0.1355291 0.41577598 0.6011494 0.09646674
-0.5108512 -0.27652165 0.20039971 0.5388977 0.157461
-0.39895344 -0.3237801 0.40431148 0.5169943 0.10302347
0.35484067 -0.26923934 0.3347055 0.18848021 0.19101557
0.45487168 0.093494676 0.2967448 0.12081013 0.20924985
0.38981023 0.08956289 0.4215818 0.12208718 0.17957048
-0.45487168 -0.093494676 -0.2967448 0.5753551 0.26313213
-0.5402323 -0.14516841 0.19670045 0.563415 0.157461
-0.56240124 -0.02556341 0.17006063 0.5858481 0.16245933
0.56240124 0.02556341 -0.17006063 0.13130277 0.3099227
0.5108512 0.27652165 -0.20039971 0.08435215 0.314921
0.45487168 0.093494676 0.2967448 0.120810136 0.20924987
-0.5016618 -0.0016495559 -0.16609807 0.5918766 0.23451585
-0.32507065 0.25953785 -0.3967914 0.64149094 0.29583013
-0.38981023 -0.08956289 -0.4215818 0.57663214 0.2928115
0.46437177 -0.1504763 -0.43634105 0.22550696 0.3795241
0.48948747 -0.1355291 -0.41577598 0.21703361 0.37591523
0.46735427 -0.15327226 -0.4311199 0.22477162 0.37811798
0.42405882 -0.053914737 -0.5123867 0.12528029 0.40125883
0.4697196 0.35870573 -0.24819517 0.06607517 0.32714266
0.52376556 -0.1163749 -0.33921817 0.14800805 0.3551977
0.46735427 -0.15327226 -0.4311199 0.61214143 0.157461
0.45084155 -0.16810659 -0.43244064 0.6075944 0.157461
0.46437177 -0.1504763 -0.43634105 0.6117987 0.15596756
-0.56240124 -0.02556341 0.17006063 0.20537585 0.27071795
-0.52376556 0.1163749 0.33921817 0.17282231 0.29933816
-0.35484067 0.26923934 -0.3347055 0.1419788 0.17755659
0.48948747 -0.1355291 -0.41577598 0.61818826 0.15988135
0.1575025 -0.51085114 0.046493955 0.5250498 0.2470454
0.33002234 -0.27938166 -0.42475182 0.57426393 0.16055518
-0.19582082 0.48888093 -0.12853402 0.080777936 0.21125421
-0.46735427 0.15327226 0.4311199 0.15759628 0.314921
-0.33002234 0.27938166 0.42475182 0.1197186 0.31182683
0.56240124 0.02556341 -0.17006063 0.6599208 0.20166405
0.35484067 -0.26923934 0.3347055 0.59652376 0.29482543
0.52376556 -0.1163749 -0.33921817 0.6273673 0.17304383
-0.46735427 0.15327226 0.4311199 0.15759629 0.314921
-0.46437177 0.1504763 0.43634105 0.15725361 0.31641442
-0.45084155 0.16810659 0.43244064 0.15304922 0.31492102
0.19060504 0.06859952 -0.6282328 0.21904607 0.157461
0.28804722 -0.27414116 -0.4478941 0.14501652 0.09699261
0.21858592 -0.2772556 -0.46319687 0.15896258 0.08845501
-0.32507065 0.25953785 -0.3967914 0.36186898 0.21548581
-0.26340765 0.28671014 -0.43174723 0.34549722 0.21744856
-0.321967 0.23159821 -0.41488835 0.36094132 0.20713124
0.19060504 0.06859952 -0.6282328 0.2190461 0.157461
0.29359028 0.33160272 -0.47229242 0.21305852 0.2381182
0.39895344 0.3237801 -0.40431148 0.18592384 0.25063333
0.03448334 -0.34024212 0.5141553 0.74312747 0.24971765
0.115412176 -0.3707166 0.47841564 0.7622781 0.24060056
0.11607913 -0.36950517 0.47985536 0.7623805 0.24109161
-0.03448334 0.34024212 -0.5141553 0.28858244 0.22266436
-0.115412176 0.3707166 -0.47841564 0.30773312 0.23178145
0.0014777464 0.3522931 -0.4996902 0.28104243 0.2285206
0.321967 -0.23159821 0.41488835 0.8154863 0.26525074
0.26340765 -0.28671014 0.43174723 0.80004215 0.25493342
0.32507065 -0.25953785 0.3967914 0.81641394 0.2568962
-0.29359028 -0.33160272 0.47229242 0.66760343 0.23426375
-0.19060504 -0.06859952 0.6282328 0.673591 0.314921
-0.42405882 0.053914737 0.5123867 0.6054883 0.3137828
-0.21858592 0.2772556 0.46319687 0.6135075 0.383927
-0.41063026 0.05111063 0.52045333 0.6090837 0.314921
-0.19060504 -0.06859952 0.6282328 0.6735911 0.314921
0.40084317 0.109727934 0.4088292 0.31312704 0.09035306
0.5108512 0.27652165 -0.20039971 0.4346959 0.12985206
0.4697196 0.35870573 -0.24819517 0.4425266 0.157461
0.19582082 -0.48888093 0.12853402 0.84370404 0.157461
0.35484067 -0.26923934 0.3347055 0.9147104 0.08841908
0.26340765 -0.28671014 0.43174723 0.93036956 0.111543685
0.5402323 0.14516841 -0.19670045 0.5069375 0.10819103
0.56240124 0.02556341 -0.17006063 0.5390612 0.087583184
0.55615664 -0.007824635 -0.2289729 0.55491763 0.0942671
0.4697196 0.35870573 -0.24819517 0.44252664 0.157461
-0.1575025 0.51085114 -0.046493955 0.37172154 0.30091807
0.046122253 0.37515488 0.35368228 0.3073243 0.2173839
0.115412176 -0.3707166 0.47841564 0.92678815 0.157461
-0.29359028 -0.33160272 0.47229242 0.94000715 0.25798026
-0.40481687 -0.34882408 0.38209453 0.9233062 0.2902994
-0.046122253 -0.37515488 -0.35368228 0.7618693 0.25499806
0.28804722 -0.27414116 -0.4478941 0.70508564 0.18603578
0.33002234 -0.27938166 -0.42475182 0.705853 0.17406924
0.34599784 0.3380608 -0.4350567 0.4787997 0.19946994
0.40481687 0.34882408 -0.38209453 0.4687612 0.18208264
0.39895344 0.3237801 -0.40431148 0.4785205 0.1839085
-0.16002016 0.4911388 0.063971095 0.35085973 0.29279003
-0.28804722 0.27414116 0.4478941 0.25054064 0.2863462
-0.21858592 0.2772556 0.46319687 0.2544641 0.26871502
-0.34599784 -0.3380608 0.4350567 0.024253989 0.27291206
-0.39895344 -0.3237801 0.40431148 0.02397474 0.2884735
-0.40481687 -0.34882408 0.38209453 0.014215368 0.2902994
0.1575025 -0.51085114 0.046493955 0.8262665 0.17146392
-0.4697196 -0.35870573 0.24819517 0.8970716 0.314921
0.4456794 0.3737123 -0.28996986 0.44910285 0.1668889
0.0014777464 0.3522931 -0.4996902 0.48129946 0.28748927
-0.5402323 -0.14516841 0.19670045 0.052391954 0.36419094
-0.55615664 0.007824635 0.2289729 0.100372404 0.37811485
-0.56240124 -0.02556341 0.17006063 0.084515885 0.38479885
-0.5108512 -0.27652165 0.20039971 0.88924086 0.34252998
-0.40084317 -0.109727934 -0.4088292 0.767672 0.38202894
-0.28778023 -0.3056752 -0.33457023 0.7781526 0.314921
-0.11607913 0.36950517 -0.47985536 0.47269166 0.31525478
-0.32507065 0.25953785 -0.3967914 0.4732526 0.3787776
-0.33541915 0.36783105 -0.16734521 0.41424012 0.36460063
-0.46437177 0.1504763 0.43634105 0.38972285 0.1029444
-0.42405882 0.053914737 0.5123867 0.4153944 0.11630505
-0.28804722 0.27414116 0.4478941 0.36315912 0.14537421
-0.21858592 0.2772556 0.46319687 0.3626301 0.16189465
0.38981023 0.08956289 0.4215818 0.38143107 0.2841006
0.28778023 0.3056752 0.33457023 0.33283353 0.2595827
-0.26340765 0.28671014 -0.43174723 0.92976594 0.19485976
-0.03448334 0.34024212 -0.5141553 0.9533266 0.2383022
0.19060504 0.06859952 -0.6282328 0.90093935 0.2972988
-0.0014777464 -0.3522931 0.4996902 0.5071231 0.22869611
-0.16695361 -0.17753553 0.6080524 0.47062966 0.18531887
-0.29359028 -0.33160272 0.47229242 0.53631246 0.17538129
0.16695361 0.17753553 -0.6080524 0.016083835 0.28706312
0.0014777464 0.3522931 -0.4996902 0.052577652 0.2436859
0.29359028 0.33160272 -0.47229242 0.08176698 0.2970007
-0.38981023 -0.08956289 -0.4215818 0.835976 0.1882814
0.21858592 -0.2772556 -0.46319687 0.8171751 0.31048733
-0.28778023 -0.3056752 -0.33457023 0.7873785 0.21279928
0.11607913 -0.36950517 0.47985536 0.5016473 0.2519914
0.321967 -0.23159821 0.41488835 0.4595441 0.28655523
-0.18159685 -0.05854464 0.6258001 0.44361538 0.17639354
0.46437177 -0.1504763 -0.43634105 0.8442677 0.36943758
0.33002234 -0.27938166 -0.42475182 0.81520885 0.3381252
0.41063026 -0.05111063 -0.52045333 0.8710244 0.3524872
-0.4653434 0.11628382 0.45598224 0.6777322 0.08580815
-0.42405882 0.053914737 0.5123867 0.57982534 0.07112316
-0.4653434 0.11628382 0.45598224 0.59499574 0.08580816
-0.52376556 0.1163749 0.33921817 0.6025531 0.117184296
-0.55615664 0.007824635 0.2289729 0.589609 0.14763092
-0.4697196 -0.35870573 0.24819517 0.52062076 0.14523935
-0.4456794 -0.3737123 0.28996986 0.5151493 0.13412724
-0.40481687 -0.34882408 0.38209453 0.5138001 0.10918313
0.321967 -0.23159821 0.41488835 0.18182552 0.17297561
0.32507065 -0.25953785 0.3967914 0.18694599 0.17655188
0.5016618 0.0016495559 0.16609807 0.13733163 0.23786612
0.40084317 0.109727934 0.4088292 0.11827879 0.18310577
0.5016618 0.0016495559 0.16609807 0.13733165 0.23786615
0.5402323 0.14516841 -0.19670045 0.10886959 0.314921
-0.40084317 -0.109727934 -0.4088292 0.57282376 0.2892762
-0.35484067 0.26923934 -0.3347055 0.6430252 0.28136647
-0.321967 0.23159821 -0.41488835 0.6363704 0.29940635
0.4653434 -0.11628382 -0.45598224 0.22318727 0.38657385
0.48948747 -0.1355291 -0.41577598 0.14660439 0.3759153
0.4653434 -0.11628382 -0.45598224 0.14045075 0.38657385
0.39895344 0.3237801 -0.40431148 0.062448807 0.36935854
0.40481687 0.34882408 -0.38209453 0.05925457 0.36319888
0.4456794 0.3737123 -0.28996986 0.060603686 0.3382548
0.5108512 0.27652165 -0.20039971 0.08435216 0.314921
0.55615664 -0.007824635 -0.2289729 0.1350638 0.32475114
-0.5016618 -0.0016495559 -0.16609807 0.20168698 0.21053755
-0.55615664 0.007824635 0.2289729 0.19762415 0.2808587
-0.33541915 0.36783105 -0.16734521 0.11912125 0.20632464
0.46735427 -0.15327226 -0.4311199 0.6121414 0.157461
0.52376556 -0.1163749 -0.33921817 0.62736726 0.17304382
0.33541915 -0.36783105 0.16734521 0.5736662 0.26605737
0.19582082 -0.48888093 0.12853402 0.53532314 0.26112774
0.16002016 -0.4911388 -0.063971095 0.5261328 0.22731201
-0.16002016 0.4911388 0.063971095 0.071587436 0.24507
-0.1575025 0.51085114 -0.046493955 0.070504464 0.22533661
-0.33541915 0.36783105 -0.16734521 0.11912125 0.20632462
-0.48948747 0.1355291 0.41577598 0.16364321 0.31250063
-0.45084155 0.16810659 0.43244064 0.15304923 0.314921
0.55615664 -0.007824635 -0.2289729 0.6521691 0.19152327
0.5016618 0.0016495559 0.16609807 0.656232 0.26184446
0.33541915 -0.36783105 0.16734521 0.5736662 0.2660574
0.18159685 0.05854464 -0.6258001 0.21934034 0.15433954
0.41063026 -0.05111063 -0.52045333 0.1545387 0.157461
0.42405882 -0.053914737 -0.5123867 0.15094328 0.1585992
0.16695361 0.17753553 -0.6080524 0.23326911 0.18174851
0.34599784 0.3380608 -0.4350567 0.20034695 0.24695963
-0.0014777464 -0.3522931 0.4996902 0.7355874 0.2438614
-0.11607913 0.36950517 -0.47985536 0.30783552 0.23129039
-0.39895344 -0.3237801 0.40431148 0.64046884 0.22174868
-0.34599784 -0.3380608 0.4350567 0.65489197 0.22542237
-0.16695361 -0.17753553 0.6080524 0.6878141 0.29063344
-0.41063026 0.05111063 0.52045333 0.60908365 0.314921
-0.18159685 -0.05854464 0.6258001 0.6738853 0.31804246
-0.28804722 0.27414116 0.4478941 0.59956145 0.37538937
0.28778023 0.3056752 0.33457023 0.3236076 0.157461
0.45487168 0.093494676 0.2967448 0.3366518 0.08097704
0.11607913 -0.36950517 0.47985536 0.9272367 0.15712723
0.115412176 -0.3707166 0.47841564 0.92678815 0.15746099
0.33541915 -0.36783105 0.16734521 0.8687851 0.10778134
0.32507065 -0.25953785 0.3967914 0.9277976 0.09360444
0.4456794 0.3737123 -0.28996986 0.44910282 0.16688892
-0.16002016 0.4911388 0.063971095 0.35085976 0.29279003
-0.4456794 -0.3737123 0.28996986 0.90364784 0.30549312
0.1575025 -0.51085114 0.046493955 0.8262666 0.17146395
-0.0014777464 -0.3522931 0.4996902 0.9358445 0.18489276
-0.34599784 -0.3380608 0.4350567 0.9333447 0.27291206
0.16002016 -0.4911388 -0.063971095 0.8054048 0.17959197
0.21858592 -0.2772556 -0.46319687 0.70900905 0.20366699
0.046122253 0.37515488 0.35368228 0.3073243 0.21738392
-0.33002234 0.27938166 0.42475182 0.25130802 0.29831275
0.16002016 -0.4911388 -0.063971095 0.8054048 0.17959195
-0.4456794 -0.3737123 0.28996986 0.9036478 0.30549306
-0.115412176 0.3707166 -0.47841564 0.47224313 0.31492096
-0.19582082 0.48888093 -0.12853402 0.38915902 0.314921
-0.1575025 0.51085114 -0.046493955 0.37172154 0.30091804
0.40481687 0.34882408 -0.38209453 0.4687612 0.18208262
0.29359028 0.33160272 -0.47229242 0.4854622 0.21440175
-0.45487168 -0.093494676 -0.2967448 0.7911968 0.39140496
-0.115412176 0.3707166 -0.47841564 0.47224313 0.314921
-0.26340765 0.28671014 -0.43174723 0.4758245 0.36083835
-0.35484067 0.26923934 -0.3347055 0.46016538 0.38396293
-0.33002234 0.27938166 0.42475182 0.36066395 0.13425678
-0.45084155 0.16810659 0.43244064 0.38561428 0.10596155
-0.4653434 0.11628382 0.45598224 0.39839086 0.103693075
-0.41063026 0.05111063 0.52045333 0.4164794 0.11989478
0.046122253 0.37515488 0.35368228 0.32661426 0.21115246
-0.18159685 -0.05854464 0.6258001 0.44361538 0.17639357
0.40084317 0.109727934 0.4088292 0.375971 0.28580314
0.18159685 0.05854464 -0.6258001 0.89816034 0.29598844
-0.38981023 -0.08956289 -0.4215818 0.835976 0.18828139
-0.321967 0.23159821 -0.41488835 0.9140891 0.18582675
-0.11607913 0.36950517 -0.47985536 0.9561924 0.22039062
0.16695361 0.17753553 -0.6080524 0.92517465 0.28706312
0.03448334 -0.34024212 0.5141553 0.4987816 0.23407981
-0.03448334 0.34024212 -0.5141553 0.044236097 0.2383022
-0.40084317 -0.109727934 -0.4088292 0.830516 0.18657885
-0.046122253 -0.37515488 -0.35368228 0.7811593 0.26122954
-0.19060504 -0.06859952 0.6282328 0.44639435 0.17508319
0.26340765 -0.28671014 0.43174723 0.47522098 0.2775222
0.38981023 0.08956289 0.4215818 0.38143104 0.28410062
0.42405882 -0.053914737 -0.5123867 0.8699393 0.35607693
0.4653434 -0.11628382 -0.45598224 0.85293585 0.3686889
0.45084155 -0.16810659 -0.43244064 0.8401593 0.36642045
0.28804722 -0.27414116 -0.4478941 0.81770414 0.3270078
3 0 1 2
3 3 4 5
3 6 7 8
3 9 10 11
3 12 13 14
3 15 16 17
3 18 19 20
3 21 22 23
3 24 25 26
3 27 28 29
3 30 31 32
3 33 34 35
3 36 37 38
3 39 40 41
3 42 43 44
3 45 46 47
3 48 49 50
3 51 52 53
3 54 55 56
3 57 58 59
3 60 61 62
3 63 64 65
3 66 67 68
3 69 70 71
3 72 73 74
3 75 76 77
3 78 79 80
3 81 82 83
3 84 85 86
3 87 88 89
3 90 91 92
3 93 94 81
3 95 84 96
3 97 98 99
3 100 101 102
3 103 104 105
3 106 107 108
3 109 110 111
3 112 113 114
3 115 116 117
3 118 119 120
3 121 122 123
3 124 125 126
3 127 128 129
3 0 130 1
3 131 132 3
3 3 133 134
3 134 10 4
3 4 135 136
3 136 137 5
3 5 131 3
3 3 134 4
3 4 136 5
3 138 139 6
3 6 140 7
3 7 141 8
3 8 138 6
3 11 15 9
3 9 4 10
3 14 142 12
3 12 143 13
3 144 9 15
3 15 145 16
3 16 146 17
3 17 144 15
3 18 147 19
3 148 149 21
3 21 150 151
3 151 152 22
3 22 153 143
3 143 154 23
3 23 148 21
3 21 151 22
3 22 143 23
3 29 155 27
3 27 156 28
3 28 157 29
3 25 158 30
3 30 159 160
3 160 161 31
3 31 162 32
3 32 25 30
3 30 160 31
3 163 164 33
3 33 165 28
3 28 166 34
3 34 167 35
3 35 163 33
3 33 28 34
3 38 168 36
3 36 169 37
3 37 170 38
3 44 171 42
3 42 172 43
3 173 172 48
3 48 174 49
3 49 175 50
3 50 173 48
3 51 176 52
3 54 177 55
3 178 179 60
3 60 180 61
3 61 181 62
3 62 178 60
3 65 182 63
3 63 183 64
3 68 184 66
3 66 185 67
3 186 187 69
3 69 188 70
3 70 189 71
3 71 186 69
3 77 184 75
3 75 190 76
3 76 191 77
3 80 192 193
3 193 69 78
3 78 194 79
3 79 195 80
3 80 193 78
3 83 196 81
3 81 197 82
3 89 198 87
3 87 199 88
3 81 200 93
3 93 201 94
3 94 102 81
3 96 202 203
3 203 204 95
3 95 205 84
3 84 206 96
3 96 203 95
3 102 94 100
3 100 207 101
3 203 208 103
3 103 209 104
3 104 210 105
3 105 203 103
3 211 212 106
3 106 213 107
3 107 214 108
3 108 211 106
3 111 215 109
3 109 216 110
3 110 217 111
3 114 218 219
3 219 220 112
3 112 221 113
3 113 222 114
3 114 219 112
3 115 223 116
3 118 224 119
3 123 225 121
3 121 218 122
3 122 226 123
3 126 227 116
3 116 223 124
3 124 228 125
3 125 229 126
3 126 116 124
3 230 231 127
3 127 232 128
3 128 233 129
3 129 230 127
